<?xml version="1.0" encoding="utf-8"?>
<!-- Generator: Adobe Illustrator 21.1.0, SVG Export Plug-In . SVG Version: 6.00 Build 0)  -->
<svg version="1.1" id="Layer_1" xmlns="http://www.w3.org/2000/svg" xmlns:xlink="http://www.w3.org/1999/xlink" x="0px" y="0px"
	 width="92.5px" height="82px" viewBox="0 0 92.5 82" style="enable-background:new 0 0 92.5 82;" xml:space="preserve">
<style type="text/css">
	.st0{fill:#C6C8D7;}
	.st1{fill:#0867AD;}
</style>
<g>
	<g>
		<polygon class="st0" points="61.5,50.4 50.3,61.6 68.5,81.8 81.7,68.6 61.6,50.3 		"/>
	</g>
	<g>
		<path class="st0" d="M24.1,32.4l10.2,11.3l9.5-9.5L32.4,24c2.9-6.3,1.7-13.9-3.5-19C24.5,0.5,18.1-1,12.4,0.6L22.8,11l-2.5,9.3
			L11,22.8L0.6,12.4C-1,18.1,0.5,24.5,5,29C10.1,34.2,17.8,35.3,24.1,32.4z"/>
	</g>
	<polygon class="st1" points="59.6,43.9 58.3,42.6 82.5,17 83.8,18.3 92.5,7.3 87.7,2.5 76.6,11.1 77.9,12.4 52.3,36.6 51,35.3 
		48.7,33 46.4,35.3 15.3,66.4 12.9,68.8 15.3,71.1 23.8,79.7 26.2,82 28.5,79.7 59.6,48.5 61.9,46.2 	"/>
</g>
</svg>
