<?xml version="1.0" encoding="utf-8"?>
<!-- Generator: Adobe Illustrator 23.0.0, SVG Export Plug-In . SVG Version: 6.00 Build 0)  -->
<svg version="1.1" id="Layer_1" xmlns="http://www.w3.org/2000/svg" xmlns:xlink="http://www.w3.org/1999/xlink" x="0px" y="0px"
	 width="70.58px" height="82px" viewBox="0 0 70.58 82" style="enable-background:new 0 0 70.58 82;" xml:space="preserve">
<style type="text/css">
	.st0{fill:#0867AD;}
	.st1{fill:#9396B4;}
</style>
<g>
	<path class="st0" d="M18.86,12.62c-3.54-0.2-6.62,2.58-6.85,6.18c-0.23,3.6,2.47,6.69,6.01,6.88c3.55,0.19,6.62-2.58,6.85-6.17
		C25.1,15.9,22.41,12.81,18.86,12.62 M21.97,17.3l-3.46,5.3c-0.18,0.27-0.47,0.45-0.79,0.47c-0.05,0-0.09,0-0.14,0
		c-0.27-0.01-0.53-0.14-0.71-0.35l-1.74-2c-0.38-0.43-0.33-1.1,0.1-1.48c0.43-0.39,1.08-0.35,1.46,0.08l0.85,0.98l2.72-4.15
		c0.32-0.49,0.96-0.62,1.44-0.31C22.16,16.16,22.29,16.81,21.97,17.3"/>
	<path class="st0" d="M18.86,34.47c-3.54-0.2-6.62,2.57-6.85,6.18c-0.23,3.6,2.47,6.69,6.01,6.88c3.55,0.19,6.62-2.58,6.85-6.17
		C25.1,37.75,22.41,34.66,18.86,34.47 M21.97,39.15l-3.46,5.3c-0.18,0.27-0.47,0.45-0.79,0.47c-0.05,0-0.09,0-0.14,0
		c-0.27-0.01-0.53-0.14-0.71-0.35l-1.74-2c-0.38-0.43-0.33-1.1,0.1-1.48c0.43-0.39,1.08-0.35,1.46,0.08l0.85,0.98L20.25,38
		c0.32-0.49,0.96-0.62,1.44-0.31C22.16,38.01,22.29,38.67,21.97,39.15"/>
	<g>
		<g>
			<path class="st1" d="M57.3,16.95H27.65c-0.51,0-0.93-0.42-0.93-0.93s0.42-0.93,0.93-0.93H57.3c0.51,0,0.93,0.42,0.93,0.93
				S57.81,16.95,57.3,16.95z"/>
		</g>
		<g>
			<path class="st1" d="M57.3,23.21H27.65c-0.51,0-0.93-0.42-0.93-0.93s0.42-0.93,0.93-0.93H57.3c0.51,0,0.93,0.42,0.93,0.93
				C58.23,22.79,57.81,23.21,57.3,23.21z"/>
		</g>
	</g>
	<path class="st0" d="M18.86,56.32c-3.54-0.2-6.62,2.58-6.85,6.18c-0.23,3.6,2.47,6.69,6.01,6.88c3.55,0.19,6.62-2.58,6.85-6.17
		C25.1,59.6,22.41,56.51,18.86,56.32 M21.97,61l-3.46,5.3c-0.18,0.27-0.47,0.45-0.79,0.47c-0.05,0-0.09,0-0.14,0
		c-0.27-0.01-0.53-0.14-0.71-0.35l-1.74-2c-0.38-0.43-0.33-1.1,0.1-1.48c0.43-0.39,1.08-0.35,1.46,0.08L17.54,64l2.72-4.15
		c0.32-0.49,0.96-0.62,1.44-0.31C22.16,59.87,22.29,60.52,21.97,61"/>
	<g>
		<g>
			<path class="st1" d="M57.3,60.65H27.65c-0.51,0-0.93-0.42-0.93-0.93s0.42-0.93,0.93-0.93H57.3c0.51,0,0.93,0.42,0.93,0.93
				S57.81,60.65,57.3,60.65z"/>
		</g>
		<g>
			<path class="st1" d="M57.3,66.91H27.65c-0.51,0-0.93-0.42-0.93-0.93s0.42-0.93,0.93-0.93H57.3c0.51,0,0.93,0.42,0.93,0.93
				C58.23,66.49,57.81,66.91,57.3,66.91z"/>
		</g>
	</g>
	<g>
		<g>
			<path class="st1" d="M57.3,39.1H27.65c-0.51,0-0.93-0.42-0.93-0.93s0.42-0.93,0.93-0.93H57.3c0.51,0,0.93,0.42,0.93,0.93
				S57.81,39.1,57.3,39.1z"/>
		</g>
		<g>
			<path class="st1" d="M57.3,44.75H27.65c-0.51,0-0.93-0.42-0.93-0.93c0-0.51,0.42-0.93,0.93-0.93H57.3c0.51,0,0.93,0.42,0.93,0.93
				C58.23,44.34,57.81,44.75,57.3,44.75z"/>
		</g>
	</g>
</g>
<g>
	<path class="st0" d="M0,0h70.58v82H0V0z M66.24,4.31H4.34v73.37h61.9C66.24,77.68,66.24,4.31,66.24,4.31z"/>
</g>
</svg>
