<svg xmlns="http://www.w3.org/2000/svg" width="55.391" height="51.304" viewBox="0 0 55.391 51.304">
  <g id="download" transform="translate(-161.725 -177.657)" style="isolation: isolate">
    <path id="Path_201" data-name="Path 201" d="M372.049,499.792a.584.584,0,0,1-.584-.584v-4.292a.584.584,0,1,1,1.168,0v4.292A.584.584,0,0,1,372.049,499.792Z" transform="translate(-182.626 -275.848)" fill="#2e2e2e" stroke="#343434" stroke-width="0.5"/>
    <path id="Path_202" data-name="Path 202" d="M251.061,189.684H216.8a3.775,3.775,0,0,1-3.771-3.77v-4.237a3.775,3.775,0,0,1,3.771-3.77h34.257a3.775,3.775,0,0,1,3.771,3.77v4.236A3.775,3.775,0,0,1,251.061,189.684ZM216.8,179.075a2.606,2.606,0,0,0-2.6,2.6v4.236a2.606,2.606,0,0,0,2.6,2.6h34.257a2.606,2.606,0,0,0,2.6-2.6v-4.237a2.606,2.606,0,0,0-2.6-2.6Z" transform="translate(-44.511)" fill="#2e2e2e" stroke="#343434" stroke-width="0.5"/>
    <path id="Path_203" data-name="Path 203" d="M251.061,306.534H216.8a3.775,3.775,0,0,1-3.771-3.77v-4.237a3.775,3.775,0,0,1,3.771-3.77h34.257a3.775,3.775,0,0,1,3.771,3.77v4.236A3.775,3.775,0,0,1,251.061,306.534ZM216.8,295.925a2.606,2.606,0,0,0-2.6,2.6v4.236a2.606,2.606,0,0,0,2.6,2.6h34.257a2.606,2.606,0,0,0,2.6-2.6v-4.236a2.606,2.606,0,0,0-2.6-2.6Z" transform="translate(-44.511 -101.866)" fill="#2e2e2e" stroke="#343434" stroke-width="0.5"/>
    <path id="Path_204" data-name="Path 204" d="M251.061,423.374H216.8a3.775,3.775,0,0,1-3.771-3.771v-4.236A3.775,3.775,0,0,1,216.8,411.6h34.257a3.775,3.775,0,0,1,3.771,3.771V419.6A3.775,3.775,0,0,1,251.061,423.374ZM216.8,412.764a2.606,2.606,0,0,0-2.6,2.6V419.6a2.606,2.606,0,0,0,2.6,2.6h34.257a2.606,2.606,0,0,0,2.6-2.6v-4.236a2.606,2.606,0,0,0-2.6-2.6Z" transform="translate(-44.511 -203.723)" fill="#2e2e2e" stroke="#343434" stroke-width="0.5"/>
    <path id="Path_205" data-name="Path 205" d="M431.346,566.129H409.259a.584.584,0,0,1,0-1.168h22.087a.584.584,0,0,1,0,1.168Z" transform="translate(-215.065 -337.42)" fill="#2e2e2e" stroke="#343434" stroke-width="0.5"/>
    <path id="Path_206" data-name="Path 206" d="M194.191,566.129H162.559a.584.584,0,0,1,0-1.168h31.632a.584.584,0,0,1,0,1.168Z" transform="translate(0 -337.42)" fill="#2e2e2e" stroke="#343434" stroke-width="0.5"/>
    <path id="Path_207" data-name="Path 207" d="M344.392,533.734a.584.584,0,0,1-.584-.584,4.185,4.185,0,0,0-8.369,0,.584.584,0,0,1-1.168,0,5.352,5.352,0,0,1,10.7,0,.582.582,0,0,1-.583.584Z" transform="translate(-150.201 -305.022)" fill="#2e2e2e" stroke="#343434" stroke-width="0.5"/>
    <path id="Path_208" data-name="Path 208" d="M472.479,454.16a.572.572,0,0,1-.42-.175.591.591,0,0,1,0-.817.6.6,0,0,1,.642-.129.491.491,0,0,1,.187.129.565.565,0,0,1,0,.817A.547.547,0,0,1,472.479,454.16Z" transform="translate(-270.178 -239.812)" fill="#2e2e2e" stroke="#343434" stroke-width="0.5"/>
    <path id="Path_209" data-name="Path 209" d="M434.049,454.157a.592.592,0,0,1-.421-.175.593.593,0,0,1,0-.817.593.593,0,0,1,.643-.129.486.486,0,0,1,.186.129.563.563,0,0,1,0,.817A.545.545,0,0,1,434.049,454.157Z" transform="translate(-236.676 -239.81)" fill="#2e2e2e" stroke="#343434" stroke-width="0.5"/>
    <path id="Path_210" data-name="Path 210" d="M472.479,454.16a.572.572,0,0,1-.42-.175.591.591,0,0,1,0-.817.6.6,0,0,1,.642-.129.491.491,0,0,1,.187.129.565.565,0,0,1,0,.817A.547.547,0,0,1,472.479,454.16Z" transform="translate(-270.178 -239.812)" fill="#1fb3ee" stroke="#1fb3ee" stroke-width="2"/>
    <path id="Path_211" data-name="Path 211" d="M434.049,454.157a.592.592,0,0,1-.421-.175.593.593,0,0,1,0-.817.593.593,0,0,1,.643-.129.486.486,0,0,1,.186.129.563.563,0,0,1,0,.817A.545.545,0,0,1,434.049,454.157Z" transform="translate(-236.676 -239.81)" fill="#1fb3ee" stroke="#1fb3ee" stroke-width="2"/>
    <path id="Path_212" data-name="Path 212" d="M472.479,337.308a.567.567,0,0,1-.234-.047.49.49,0,0,1-.186-.129.512.512,0,0,1-.164-.408.58.58,0,0,1,.164-.409.476.476,0,0,1,.186-.128.593.593,0,0,1,.818.537.769.769,0,0,1-.047.222.527.527,0,0,1-.128.186A.548.548,0,0,1,472.479,337.308Z" transform="translate(-270.178 -137.944)" fill="#2e2e2e" stroke="#343434" stroke-width="0.5"/>
    <path id="Path_213" data-name="Path 213" d="M434.049,337.349a.555.555,0,0,1-.421-.176.593.593,0,0,1,0-.817.6.6,0,0,1,.829,0,.563.563,0,0,1,0,.817A.546.546,0,0,1,434.049,337.349Z" transform="translate(-236.676 -137.986)" fill="#2e2e2e" stroke="#343434" stroke-width="0.5"/>
    <path id="Path_214" data-name="Path 214" d="M472.479,337.308a.567.567,0,0,1-.234-.047.49.49,0,0,1-.186-.129.512.512,0,0,1-.164-.408.58.58,0,0,1,.164-.409.476.476,0,0,1,.186-.128.593.593,0,0,1,.818.537.769.769,0,0,1-.047.222.527.527,0,0,1-.128.186A.548.548,0,0,1,472.479,337.308Z" transform="translate(-270.178 -137.944)" fill="#1fb3ee" stroke="#1fb3ee" stroke-width="2"/>
    <path id="Path_215" data-name="Path 215" d="M434.049,337.349a.555.555,0,0,1-.421-.176.593.593,0,0,1,0-.817.6.6,0,0,1,.829,0,.563.563,0,0,1,0,.817A.546.546,0,0,1,434.049,337.349Z" transform="translate(-236.676 -137.986)" fill="#1fb3ee" stroke="#1fb3ee" stroke-width="2"/>
    <path id="Path_216" data-name="Path 216" d="M472.479,220.513a.567.567,0,0,1-.234-.047.494.494,0,0,1-.186-.128.739.739,0,0,1-.128-.187.728.728,0,0,1-.036-.222.581.581,0,0,1,.164-.409.589.589,0,0,1,1,.409.765.765,0,0,1-.047.222.739.739,0,0,1-.128.187A.549.549,0,0,1,472.479,220.513Z" transform="translate(-270.178 -36.132)" fill="#2e2e2e" stroke="#343434" stroke-width="0.5"/>
    <path id="Path_217" data-name="Path 217" d="M434.053,220.47a.481.481,0,0,1-.222-.047.456.456,0,0,1-.2-.128.739.739,0,0,1-.128-.187.727.727,0,0,1-.035-.222.582.582,0,0,1,.163-.409.448.448,0,0,1,.2-.129.583.583,0,0,1,.444,0,.49.49,0,0,1,.186.128.53.53,0,0,1,.129.187.747.747,0,0,1,.047.222.764.764,0,0,1-.047.222.537.537,0,0,1-.129.187.486.486,0,0,1-.186.129A.514.514,0,0,1,434.053,220.47Z" transform="translate(-236.679 -36.089)" fill="#2e2e2e" stroke="#343434" stroke-width="0.5"/>
    <path id="Path_218" data-name="Path 218" d="M472.479,220.513a.567.567,0,0,1-.234-.047.494.494,0,0,1-.186-.128.739.739,0,0,1-.128-.187.728.728,0,0,1-.036-.222.581.581,0,0,1,.164-.409.589.589,0,0,1,1,.409.765.765,0,0,1-.047.222.739.739,0,0,1-.128.187A.549.549,0,0,1,472.479,220.513Z" transform="translate(-270.178 -36.132)" fill="#1fb3ee" stroke="#1fb3ee" stroke-width="2"/>
    <path id="Path_219" data-name="Path 219" d="M434.053,220.47a.481.481,0,0,1-.222-.047.456.456,0,0,1-.2-.128.739.739,0,0,1-.128-.187.727.727,0,0,1-.035-.222.582.582,0,0,1,.163-.409.448.448,0,0,1,.2-.129.583.583,0,0,1,.444,0,.49.49,0,0,1,.186.128.53.53,0,0,1,.129.187.747.747,0,0,1,.047.222.764.764,0,0,1-.047.222.537.537,0,0,1-.129.187.486.486,0,0,1-.186.129A.514.514,0,0,1,434.053,220.47Z" transform="translate(-236.679 -36.089)" fill="#1fb3ee" stroke="#1fb3ee" stroke-width="2"/>
  </g>
</svg>
